{
	"asset":{
		"generator":"Khronos glTF Blender I/O v3.5.30",
		"version":"2.0"
	},
	"scene":0,
	"scenes":[
		{
			"name":"Scene",
			"nodes":[
				0,
				1,
				2,
				3,
				4
			]
		}
	],
	"nodes":[
		{
			"mesh":0,
			"name":"Plane.004"
		},
		{
			"mesh":1,
			"name":"Plane.005"
		},
		{
			"mesh":2,
			"name":"Plane.006"
		},
		{
			"mesh":3,
			"name":"Circle.004"
		},
		{
			"mesh":4,
			"name":"GameDev"
		}
	],
	"materials":[
		{
			"doubleSided":true,
			"name":"Black",
			"pbrMetallicRoughness":{
				"baseColorFactor":[
					0.013394142501056194,
					0.013394142501056194,
					0.013394142501056194,
					1
				],
				"metallicFactor":0,
				"roughnessFactor":0.5
			}
		},
		{
			"doubleSided":true,
			"name":"Red",
			"pbrMetallicRoughness":{
				"baseColorFactor":[
					0.7991029620170593,
					0.04970657452940941,
					0.10461650043725967,
					1
				],
				"metallicFactor":0,
				"roughnessFactor":0.5
			}
		},
		{
			"doubleSided":true,
			"name":"Blue",
			"pbrMetallicRoughness":{
				"baseColorFactor":[
					0.03560132905840874,
					0.3277781903743744,
					0.5906190872192383,
					1
				],
				"metallicFactor":0,
				"roughnessFactor":0.5
			}
		},
		{
			"doubleSided":true,
			"name":"Yellow",
			"pbrMetallicRoughness":{
				"baseColorFactor":[
					0.9822508096694946,
					0.5583406686782837,
					0.08650045096874237,
					1
				],
				"metallicFactor":0,
				"roughnessFactor":0.5
			}
		},
		{
			"doubleSided":true,
			"name":"Gray",
			"pbrMetallicRoughness":{
				"baseColorFactor":[
					0.22056476771831512,
					0.22056476771831512,
					0.22056476771831512,
					1
				],
				"metallicFactor":0,
				"roughnessFactor":0.5
			}
		}
	],
	"meshes":[
		{
			"name":"Plane.004",
			"primitives":[
				{
					"attributes":{
						"POSITION":0,
						"TEXCOORD_0":1,
						"NORMAL":2
					},
					"indices":3,
					"material":0
				},
				{
					"attributes":{
						"POSITION":4,
						"TEXCOORD_0":5,
						"NORMAL":6
					},
					"indices":7,
					"material":1
				},
				{
					"attributes":{
						"POSITION":8,
						"TEXCOORD_0":9,
						"NORMAL":10
					},
					"indices":11,
					"material":2
				},
				{
					"attributes":{
						"POSITION":12,
						"TEXCOORD_0":13,
						"NORMAL":14
					},
					"indices":15,
					"material":3
				}
			]
		},
		{
			"name":"Plane.005",
			"primitives":[
				{
					"attributes":{
						"POSITION":16,
						"TEXCOORD_0":17,
						"NORMAL":18
					},
					"indices":19,
					"material":0
				},
				{
					"attributes":{
						"POSITION":20,
						"TEXCOORD_0":21,
						"NORMAL":22
					},
					"indices":23,
					"material":4
				}
			]
		},
		{
			"name":"Plane.007",
			"primitives":[
				{
					"attributes":{
						"POSITION":24,
						"TEXCOORD_0":25,
						"NORMAL":26
					},
					"indices":27,
					"material":0
				}
			]
		},
		{
			"name":"Circle.009",
			"primitives":[
				{
					"attributes":{
						"POSITION":28,
						"TEXCOORD_0":29,
						"NORMAL":30
					},
					"indices":31,
					"material":0
				}
			]
		},
		{
			"name":"Text.002",
			"primitives":[
				{
					"attributes":{
						"POSITION":32,
						"TEXCOORD_0":33,
						"NORMAL":34
					},
					"indices":35
				}
			]
		}
	],
	"accessors":[
		{
			"bufferView":0,
			"componentType":5126,
			"count":107,
			"max":[
				0.9999998807907104,
				0.021461673080921173,
				0.9749601483345032
			],
			"min":[
				-0.9999998807907104,
				-0.04210209846496582,
				-1.0250399112701416
			],
			"type":"VEC3"
		},
		{
			"bufferView":1,
			"componentType":5126,
			"count":107,
			"type":"VEC2"
		},
		{
			"bufferView":2,
			"componentType":5126,
			"count":107,
			"type":"VEC3"
		},
		{
			"bufferView":3,
			"componentType":5123,
			"count":216,
			"type":"SCALAR"
		},
		{
			"bufferView":4,
			"componentType":5126,
			"count":40,
			"max":[
				-0.06048799306154251,
				0.012425133027136326,
				0.9144721627235413
			],
			"min":[
				-0.9395118951797485,
				-0.008395305834710598,
				-0.8790088891983032
			],
			"type":"VEC3"
		},
		{
			"bufferView":5,
			"componentType":5126,
			"count":40,
			"type":"VEC2"
		},
		{
			"bufferView":6,
			"componentType":5126,
			"count":40,
			"type":"VEC3"
		},
		{
			"bufferView":7,
			"componentType":5123,
			"count":72,
			"type":"SCALAR"
		},
		{
			"bufferView":8,
			"componentType":5126,
			"count":46,
			"max":[
				0.8539689183235168,
				0.012425088323652744,
				-0.11058282107114792
			],
			"min":[
				-0.8539689779281616,
				-0.008395305834710598,
				-0.9645519256591797
			],
			"type":"VEC3"
		},
		{
			"bufferView":9,
			"componentType":5126,
			"count":46,
			"type":"VEC2"
		},
		{
			"bufferView":10,
			"componentType":5126,
			"count":46,
			"type":"VEC3"
		},
		{
			"bufferView":11,
			"componentType":5123,
			"count":84,
			"type":"SCALAR"
		},
		{
			"bufferView":12,
			"componentType":5126,
			"count":64,
			"max":[
				0.9395118951797485,
				0.012425133027136326,
				0.9144721627235413
			],
			"min":[
				0.06048799306154251,
				-0.008395305834710598,
				-0.8790088891983032
			],
			"type":"VEC3"
		},
		{
			"bufferView":13,
			"componentType":5126,
			"count":64,
			"type":"VEC2"
		},
		{
			"bufferView":14,
			"componentType":5126,
			"count":64,
			"type":"VEC3"
		},
		{
			"bufferView":15,
			"componentType":5123,
			"count":138,
			"type":"SCALAR"
		},
		{
			"bufferView":16,
			"componentType":5126,
			"count":32,
			"max":[
				1.0414758920669556,
				0.08391904830932617,
				1.016436219215393
			],
			"min":[
				-1.0414758920669556,
				-0.050189971923828125,
				-1.0665160417556763
			],
			"type":"VEC3"
		},
		{
			"bufferView":17,
			"componentType":5126,
			"count":32,
			"type":"VEC2"
		},
		{
			"bufferView":18,
			"componentType":5126,
			"count":32,
			"type":"VEC3"
		},
		{
			"bufferView":19,
			"componentType":5123,
			"count":72,
			"type":"SCALAR"
		},
		{
			"bufferView":20,
			"componentType":5126,
			"count":244,
			"max":[
				1.0443781614303589,
				0.08391904830932617,
				1.0193384885787964
			],
			"min":[
				-1.0443781614303589,
				-0.08391857147216797,
				-1.0694183111190796
			],
			"type":"VEC3"
		},
		{
			"bufferView":21,
			"componentType":5126,
			"count":244,
			"type":"VEC2"
		},
		{
			"bufferView":22,
			"componentType":5126,
			"count":244,
			"type":"VEC3"
		},
		{
			"bufferView":23,
			"componentType":5123,
			"count":438,
			"type":"SCALAR"
		},
		{
			"bufferView":24,
			"componentType":5126,
			"count":1760,
			"max":[
				1.0593161582946777,
				-0.05257833003997803,
				1.0342764854431152
			],
			"min":[
				-1.0593159198760986,
				-0.08391910791397095,
				-1.0843563079833984
			],
			"type":"VEC3"
		},
		{
			"bufferView":25,
			"componentType":5126,
			"count":1760,
			"type":"VEC2"
		},
		{
			"bufferView":26,
			"componentType":5126,
			"count":1760,
			"type":"VEC3"
		},
		{
			"bufferView":27,
			"componentType":5123,
			"count":2640,
			"type":"SCALAR"
		},
		{
			"bufferView":28,
			"componentType":5126,
			"count":7804,
			"max":[
				1.0292248725891113,
				0.05555395781993866,
				1.004163146018982
			],
			"min":[
				-1.0292094945907593,
				0.028238758444786072,
				-1.0542584657669067
			],
			"type":"VEC3"
		},
		{
			"bufferView":29,
			"componentType":5126,
			"count":7804,
			"type":"VEC2"
		},
		{
			"bufferView":30,
			"componentType":5126,
			"count":7804,
			"type":"VEC3"
		},
		{
			"bufferView":31,
			"componentType":5123,
			"count":15360,
			"type":"SCALAR"
		},
		{
			"bufferView":32,
			"componentType":5126,
			"count":6381,
			"max":[
				0.9652319550514221,
				0.2117617130279541,
				0.6223185062408447
			],
			"min":[
				-0.9622883200645447,
				0.0757775828242302,
				-0.5684541463851929
			],
			"type":"VEC3"
		},
		{
			"bufferView":33,
			"componentType":5126,
			"count":6381,
			"type":"VEC2"
		},
		{
			"bufferView":34,
			"componentType":5126,
			"count":6381,
			"type":"VEC3"
		},
		{
			"bufferView":35,
			"componentType":5123,
			"count":12720,
			"type":"SCALAR"
		}
	],
	"bufferViews":[
		{
			"buffer":0,
			"byteLength":1284,
			"byteOffset":0,
			"target":34962
		},
		{
			"buffer":0,
			"byteLength":856,
			"byteOffset":1284,
			"target":34962
		},
		{
			"buffer":0,
			"byteLength":1284,
			"byteOffset":2140,
			"target":34962
		},
		{
			"buffer":0,
			"byteLength":432,
			"byteOffset":3424,
			"target":34963
		},
		{
			"buffer":0,
			"byteLength":480,
			"byteOffset":3856,
			"target":34962
		},
		{
			"buffer":0,
			"byteLength":320,
			"byteOffset":4336,
			"target":34962
		},
		{
			"buffer":0,
			"byteLength":480,
			"byteOffset":4656,
			"target":34962
		},
		{
			"buffer":0,
			"byteLength":144,
			"byteOffset":5136,
			"target":34963
		},
		{
			"buffer":0,
			"byteLength":552,
			"byteOffset":5280,
			"target":34962
		},
		{
			"buffer":0,
			"byteLength":368,
			"byteOffset":5832,
			"target":34962
		},
		{
			"buffer":0,
			"byteLength":552,
			"byteOffset":6200,
			"target":34962
		},
		{
			"buffer":0,
			"byteLength":168,
			"byteOffset":6752,
			"target":34963
		},
		{
			"buffer":0,
			"byteLength":768,
			"byteOffset":6920,
			"target":34962
		},
		{
			"buffer":0,
			"byteLength":512,
			"byteOffset":7688,
			"target":34962
		},
		{
			"buffer":0,
			"byteLength":768,
			"byteOffset":8200,
			"target":34962
		},
		{
			"buffer":0,
			"byteLength":276,
			"byteOffset":8968,
			"target":34963
		},
		{
			"buffer":0,
			"byteLength":384,
			"byteOffset":9244,
			"target":34962
		},
		{
			"buffer":0,
			"byteLength":256,
			"byteOffset":9628,
			"target":34962
		},
		{
			"buffer":0,
			"byteLength":384,
			"byteOffset":9884,
			"target":34962
		},
		{
			"buffer":0,
			"byteLength":144,
			"byteOffset":10268,
			"target":34963
		},
		{
			"buffer":0,
			"byteLength":2928,
			"byteOffset":10412,
			"target":34962
		},
		{
			"buffer":0,
			"byteLength":1952,
			"byteOffset":13340,
			"target":34962
		},
		{
			"buffer":0,
			"byteLength":2928,
			"byteOffset":15292,
			"target":34962
		},
		{
			"buffer":0,
			"byteLength":876,
			"byteOffset":18220,
			"target":34963
		},
		{
			"buffer":0,
			"byteLength":21120,
			"byteOffset":19096,
			"target":34962
		},
		{
			"buffer":0,
			"byteLength":14080,
			"byteOffset":40216,
			"target":34962
		},
		{
			"buffer":0,
			"byteLength":21120,
			"byteOffset":54296,
			"target":34962
		},
		{
			"buffer":0,
			"byteLength":5280,
			"byteOffset":75416,
			"target":34963
		},
		{
			"buffer":0,
			"byteLength":93648,
			"byteOffset":80696,
			"target":34962
		},
		{
			"buffer":0,
			"byteLength":62432,
			"byteOffset":174344,
			"target":34962
		},
		{
			"buffer":0,
			"byteLength":93648,
			"byteOffset":236776,
			"target":34962
		},
		{
			"buffer":0,
			"byteLength":30720,
			"byteOffset":330424,
			"target":34963
		},
		{
			"buffer":0,
			"byteLength":76572,
			"byteOffset":361144,
			"target":34962
		},
		{
			"buffer":0,
			"byteLength":51048,
			"byteOffset":437716,
			"target":34962
		},
		{
			"buffer":0,
			"byteLength":76572,
			"byteOffset":488764,
			"target":34962
		},
		{
			"buffer":0,
			"byteLength":25440,
			"byteOffset":565336,
			"target":34963
		}
	],
	"buffers":[
		{
			"byteLength":590776,
			"uri":"data:application/octet-stream;base64,"
		}
	]
}
